<mxfile host="app.diagrams.net" modified="2024-01-07T10:03:30.981Z" agent="Mozilla/5.0 (Windows NT 10.0; Win64; x64) AppleWebKit/537.36 (KHTML, like Gecko) Chrome/120.0.0.0 Safari/537.36" version="22.1.17" etag="WIrITf1RM1_MBQMWQ1c-" type="github">
  <diagram name="หน้า-1" id="n6T9V_ZkUnfISqR4MLSv">
    <mxGraphModel>
      <root>
        <mxCell id="0" />
        <mxCell id="1" parent="0" />
      </root>
    </mxGraphModel>
  </diagram>
</mxfile>
